<svg xmlns="http://www.w3.org/2000/svg" width="520" height="320" viewBox="0 0 520 320" role="img" aria-label="Rudraksha Bracelet">
  <defs>
    <linearGradient id="br" x1="0" x2="1" y1="0" y2="1">
      <stop offset="0" stop-color="#f28c28" stop-opacity="0.22"/>
      <stop offset="1" stop-color="#d4af37" stop-opacity="0.18"/>
    </linearGradient>
  </defs>
  <rect x="0" y="0" width="520" height="320" rx="28" fill="url(#br)"/>
  <g transform="translate(260 164)">
    <circle r="92" fill="none" stroke="#6f3f25" stroke-width="14" opacity="0.20"/>
    <g fill="#8b5632" opacity="0.95">
      <circle cx="0" cy="-92" r="10"/><circle cx="44" cy="-80" r="10"/><circle cx="74" cy="-50" r="10"/>
      <circle cx="88" cy="-8" r="10"/><circle cx="80" cy="34" r="10"/><circle cx="50" cy="66" r="10"/>
      <circle cx="8" cy="88" r="10"/><circle cx="-34" cy="80" r="10"/><circle cx="-66" cy="52" r="10"/>
      <circle cx="-88" cy="10" r="10"/><circle cx="-82" cy="-34" r="10"/><circle cx="-54" cy="-66" r="10"/>
    </g>
    <path d="M-110 68 C-70 96 -30 104 0 104 C30 104 70 96 110 68" fill="none" stroke="#1d1a14" stroke-width="4" opacity="0.18"/>
  </g>
  <text x="26" y="48" font-family="Segoe UI, Arial" font-size="22" font-weight="800" fill="#1d1a14" opacity="0.9">Ved Vigyan</text>
  <text x="26" y="78" font-family="Segoe UI, Arial" font-size="14" font-weight="700" fill="#1d1a14" opacity="0.65">Bracelet Collection</text>
</svg>

