<svg xmlns="http://www.w3.org/2000/svg" width="520" height="320" viewBox="0 0 520 320" role="img" aria-label="5 Mukhi Rudraksha">
  <defs>
    <linearGradient id="g1" x1="0" x2="1" y1="0" y2="1">
      <stop offset="0" stop-color="#f28c28" stop-opacity="0.35"/>
      <stop offset="1" stop-color="#d4af37" stop-opacity="0.25"/>
    </linearGradient>
  </defs>
  <rect x="0" y="0" width="520" height="320" rx="28" fill="url(#g1)"/>
  <g transform="translate(260 164)">
    <circle r="92" fill="#7a4a2a" opacity="0.18"/>
    <circle r="86" fill="#7a4a2a" opacity="0.22"/>
    <circle r="80" fill="#8b5632" opacity="0.95"/>
    <path d="M0-78 C-8-56 -8-24 0-2 C8 20 8 52 0 74" fill="none" stroke="#3d2316" stroke-width="5" opacity="0.55"/>
    <path d="M-28-74 C-42-42 -42-10 -28 22 C-18 44 -18 62 -28 76" fill="none" stroke="#3d2316" stroke-width="4" opacity="0.42"/>
    <path d="M28-74 C42-42 42-10 28 22 C18 44 18 62 28 76" fill="none" stroke="#3d2316" stroke-width="4" opacity="0.42"/>
    <circle r="6" fill="#2a1911" opacity="0.55"/>
  </g>
  <text x="26" y="48" font-family="Segoe UI, Arial" font-size="22" font-weight="800" fill="#1d1a14" opacity="0.9">Ved Vigyan</text>
  <text x="26" y="78" font-family="Segoe UI, Arial" font-size="14" font-weight="700" fill="#1d1a14" opacity="0.65">Authentic Spiritual Products</text>
</svg>

